<?xml version="1.0" encoding="utf-8"?>
<!-- Generator: Adobe Illustrator 25.2.1, SVG Export Plug-In . SVG Version: 6.00 Build 0)  -->
<svg version="1.1" id="Layer_1" xmlns="http://www.w3.org/2000/svg" xmlns:xlink="http://www.w3.org/1999/xlink" x="0px" y="0px"
	 viewBox="0 0 1500 250.82" style="enable-background:new 0 0 1500 250.82;" xml:space="preserve">
<style type="text/css">
	.st0{fill:#FFFFFF;}
	.st1{fill:#1CAF4B;}
</style>
<g>
	<path class="st0" d="M297.01,115.36l-41.1-41.1c-2.77-2.77-6.41-4.16-10.05-4.16s-7.27,1.39-10.05,4.16l-32.53,32.53
		c-2.31,2.31-6.05,2.31-8.36,0L162.4,74.26c-2.77-2.77-6.41-4.16-10.05-4.16c-3.64,0-7.27,1.39-10.05,4.16l-3.36,3.36
		c-0.58,0.58-0.58,1.51,0,2.09l60.15,60.15l0.01-0.01l36.7,36.7c2.77,2.77,6.41,4.16,10.05,4.16s7.27-1.39,10.05-4.16l41.1-41.1
		C302.56,129.91,302.56,120.91,297.01,115.36z M273.86,129.59l-23.82,23.82c-2.31,2.31-6.05,2.31-8.35,0l-23.82-23.82
		c-2.31-2.31-2.31-6.05,0-8.35l23.82-23.82c2.31-2.31,6.05-2.31,8.35,0l23.82,23.82C276.16,123.54,276.16,127.28,273.86,129.59z"/>
	<path class="st1" d="M167.74,142.15l-11.12,11.12c-2.31,2.31-6.04,2.31-8.35,0l-23.81-23.81c-2.31-2.31-2.31-6.04,0-8.35
		l19.76-19.76c0.58-0.58,0.58-1.51,0-2.09L131.8,86.84c-0.58-0.58-1.51-0.58-2.09,0l-28.4,28.4c-5.55,5.55-5.55,14.54,0,20.09
		l41.09,41.09c2.77,2.77,6.41,4.16,10.05,4.16c3.64,0,7.27-1.39,10.05-4.16l28.4-28.4c0.58-0.58,0.58-1.51,0-2.09l-3.78-3.78
		C181.76,136.8,173.09,136.8,167.74,142.15z"/>
	<path class="st0" d="M1198.43,180.72c-36.86,0-48.47-25.87-48.47-44.64s11.61-44.64,48.47-44.64h0c36.86,0,48.47,25.87,48.47,44.64
		S1235.29,180.72,1198.43,180.72L1198.43,180.72z M1198.43,159.89c19.66,0,25.06-13.8,25.06-23.81s-5.4-23.81-25.06-23.81h0
		c-19.66,0-25.06,13.8-25.06,23.81S1178.78,159.89,1198.43,159.89L1198.43,159.89z"/>
	<path class="st0" d="M1136.44,117.85l7.93-13.33c0.4-0.68,0.3-1.55-0.27-2.08c-6.31-5.92-15.62-10.98-28.64-10.98
		c-36.86,0-48.47,25.87-48.47,44.64c0,18.76,11.61,44.64,48.47,44.64c14.67,0,25.5-6.87,30.65-14.03c0.4-0.55,0.39-1.3,0.02-1.87
		l-8.23-12.82c-0.53-0.83-1.66-1.02-2.45-0.42c-5.74,4.39-11.83,8.32-21.98,8.32c-15.39,0-23.08-13.8-23.08-23.81
		c0-10.01,5.4-23.81,25.06-23.81c8.2,0,14.52,3.13,18.56,6.07C1134.82,118.94,1135.94,118.7,1136.44,117.85z"/>
	<g>
		<path class="st1" d="M544.46,180.72c-36.86,0-48.47-25.87-48.47-44.64s11.61-44.64,48.47-44.64l0,0
			c36.86,0,48.47,25.87,48.47,44.64S581.32,180.72,544.46,180.72L544.46,180.72z M544.46,159.89c19.66,0,25.06-13.8,25.06-23.81
			s-5.4-23.81-25.06-23.81l0,0c-19.66,0-25.06,13.8-25.06,23.81S524.81,159.89,544.46,159.89L544.46,159.89z"/>
		<path class="st1" d="M735.81,180.72c-36.86,0-48.47-25.87-48.47-44.64s11.61-44.64,48.47-44.64h0c36.86,0,48.47,25.87,48.47,44.64
			S772.67,180.72,735.81,180.72L735.81,180.72z M735.81,159.89c19.66,0,25.06-13.8,25.06-23.81s-5.4-23.81-25.06-23.81l0,0
			c-19.66,0-25.06,13.8-25.06,23.81S716.15,159.89,735.81,159.89L735.81,159.89z"/>
		<path class="st1" d="M422.3,117.85l7.93-13.33c0.4-0.68,0.3-1.55-0.27-2.08c-6.31-5.92-15.62-10.98-28.64-10.98
			c-36.86,0-48.47,25.87-48.47,44.64c0,18.76,11.61,44.64,48.47,44.64c14.67,0,25.5-6.87,30.65-14.03c0.4-0.55,0.39-1.3,0.02-1.87
			l-8.23-12.82c-0.53-0.83-1.66-1.02-2.45-0.42c-5.74,4.39-11.83,8.32-21.98,8.32c-15.39,0-23.08-13.8-23.08-23.81
			c0-10.01,5.4-23.81,25.06-23.81c8.2,0,14.52,3.13,18.56,6.07C420.68,118.94,421.8,118.7,422.3,117.85z"/>
		<path class="st1" d="M673.82,117.85l7.93-13.33c0.4-0.68,0.3-1.55-0.27-2.08c-6.31-5.92-15.62-10.98-28.64-10.98
			c-36.86,0-48.47,25.87-48.47,44.64c0,18.76,11.61,44.64,48.47,44.64c14.67,0,25.5-6.87,30.65-14.03c0.4-0.55,0.39-1.3,0.02-1.87
			l-8.23-12.82c-0.53-0.83-1.66-1.02-2.45-0.42c-5.74,4.39-11.83,8.32-21.98,8.32c-15.39,0-23.08-13.8-23.08-23.81
			c0-10.01,5.4-23.81,25.06-23.81c8.2,0,14.52,3.13,18.56,6.07C672.2,118.94,673.32,118.7,673.82,117.85z"/>
		<path class="st1" d="M467.37,134.49c-0.05,2.1-0.01,36.49,0,44.55c0,0.93-0.75,1.68-1.69,1.68h-22.6c-0.93,0-1.69-0.75-1.69-1.69
			v-43.08c0-17.14,9.62-43.72,48.6-44.48c0.94-0.02,1.73,0.76,1.73,1.7v17.47c0,0.92-0.72,1.66-1.64,1.68
			C483.46,112.47,467.37,114.2,467.37,134.49z"/>
	</g>
	<path class="st0" d="M840.55,91.45c-5.8,0-12.39,2.47-18.69,5.85V72.44c0-0.98-0.84-1.76-1.81-1.68l-22.6,1.73
		c-0.88,0.07-1.56,0.8-1.56,1.68v42.08V172c0,0.69,0.42,1.31,1.06,1.57c4.07,1.63,19.68,7.16,43.61,7.16
		c33.97,0,44.67-25.87,44.67-44.64C885.22,117.32,874.52,91.45,840.55,91.45z M839.23,159.89c-8.41,0-13.9-0.9-17.37-1.84l0-39.35
		c3.47-3.29,8.96-6.43,17.37-6.43c17.71,0,22.58,13.8,22.58,23.81C861.8,146.09,856.94,159.89,839.23,159.89z"/>
	<path class="st0" d="M1038.7,177.13c0.18,0.9-0.38,1.79-1.27,1.99c-4.67,1.04-9.68,1.6-15.14,1.6c-23.18,0-29.85-14.63-29.85-26.84
		V74.15c0-0.88,0.68-1.61,1.56-1.68l22.6-1.72c0.98-0.07,1.81,0.7,1.81,1.68v17.32c0,0.93,0.75,1.69,1.69,1.69h13.77
		c0.93,0,1.69,0.75,1.69,1.69v17.46c0,0.93-0.75,1.69-1.69,1.69h-13.77c-0.93,0-1.69,0.75-1.69,1.68c0,6.27,0,28.27,0,34.58
		c0.19,12.02,5.22,14.21,15.59,13.07c0.88-0.1,1.69,0.48,1.86,1.34L1038.7,177.13z"/>
	<path class="st0" d="M921.58,128.49c8.21,0,20.21,0,28.12,0c4.58-0.17,7.22-2.91,7.22-6.52c0-5.58-5.68-9.69-11.33-9.69
		C938.81,112.28,925.79,114.07,921.58,128.49z M945.6,91.45c14.26,0,34.91,9.14,34.91,29.35c0,16.78-12.67,26.64-38.35,26.64h0
		c-5.23,0-13.24,0-18.68,0c4.73,11.93,18.95,14.29,25.58,14.29c7.35,0,13.84-2.19,20.55-5.59c0.88-0.45,1.97-0.05,2.34,0.86
		c1.85,4.54,3.65,8.96,5.49,13.47c0.32,0.78,0.01,1.71-0.72,2.13c-9.83,5.58-20.08,8.27-31.24,8.12v0
		c-36.86,0-48.35-25.87-48.35-44.64C897.12,117.32,908.74,91.45,945.6,91.45z"/>
	<circle class="st0" cx="1056.95" cy="169.72" r="11.01"/>
	<path class="st0" d="M1360.78,91.45c-12.66,0-22.95,4.12-30.2,11.62c-7.25-7.5-17.54-11.62-30.2-11.62
		c-25.95,0-42.07,17.2-42.07,45.72v41.87c0,0.93,0.76,1.69,1.69,1.69h20.37c0.93,0,1.69-0.75,1.69-1.69v-43
		c0-14.13,5.87-23.69,18.33-23.76c12.46,0.07,18.33,9.63,18.33,23.76v1.13v41.87c0,0.93,0.76,1.69,1.69,1.69h20.37
		c0.93,0,1.69-0.75,1.69-1.69v-41.87v-1.13c0-14.13,5.87-23.69,18.33-23.76c12.46,0.07,18.33,9.63,18.33,23.76v43
		c0,0.93,0.76,1.69,1.69,1.69h20.37c0.93,0,1.69-0.75,1.69-1.69v-41.87C1402.85,108.65,1386.73,91.45,1360.78,91.45z"/>
</g>
</svg>
